<?xml version="1.0" standalone="no"?><!DOCTYPE svg PUBLIC "-//W3C//DTD SVG 1.1//EN" "http://www.w3.org/Graphics/SVG/1.1/DTD/svg11.dtd"><svg t="1713775634409" class="icon" viewBox="0 0 1024 1024" version="1.1" xmlns="http://www.w3.org/2000/svg" p-id="7383" xmlns:xlink="http://www.w3.org/1999/xlink" width="200" height="200"><path d="M889.642667 523.093333c-64.64-127.061333-171.648-254.122667-321.066667-381.269333-20.608-17.493333-50.773333-18.261333-73.130667-2.944-140.032 96.170667-246.613333 225.194667-319.744 387.072-15.658667 34.688 6.912 74.624 44.970667 80.938667 14.506667 2.432 29.056 4.266667 43.562667 6.357333 3.584 71.68 11.434667 143.36 24.832 214.997333 3.541333 18.986667 17.877333 34.730667 36.821333 39.808 137.941333 37.12 275.2 37.461333 411.648-0.085333a51.2 51.2 0 0 0 36.352-38.613333c15.146667-71.893333 24.064-143.786667 28.16-215.722667 14.677333-2.090667 29.397333-3.968 44.117333-6.4 39.594667-6.528 61.44-48.810667 43.52-84.096" fill="#000000" p-id="7384"></path></svg>